<svg width="40" height="40" viewBox="0 0 40 40" fill="none" xmlns="http://www.w3.org/2000/svg" stroke="#176ABD">
  <path d="M28.5 39.5H9M9 39.5H2V33H9V39.5Z" />
  <path d="M11.5 39.5L13.0543 34M18 16.5L20.6848 26M18 16.5L15.3152 26M18 16.5L5.5 20.5M18 16.5L31 12M24.5 39.5L20.6848 26M22.5 34H13.0543M13.0543 34L15.3152 26M20.6848 26H15.3152M5.5 20.5L3.5 14.5L29 6.5M5.5 20.5V33M29 6.5L28 3.5L34 1L36.9535 8.51806C38.3569 12.0904 36.5823 16.1222 33 17.5V17.5M29 6.5L31 12M31 12L33 17.5M33 17.5V40" />
</svg>
