<svg width="40" height="40" viewBox="0 0 40 40" fill="none" xmlns="http://www.w3.org/2000/svg" stroke="#176ABD">
  <path d="M12.7045 15.9859V5.8169H8V4.21127L11.1364 1H21.0682L31 5.8169H19.5V9.56338M12.7045 15.9859H8.52273V20.8028H12.7045M12.7045 15.9859V20.8028M12.7045 20.8028V39H19.5V34.1831M19.5 15.9859H31L24.2045 20.8028H19.5M19.5 15.9859V14.3803M19.5 15.9859V19.1972M19.5 20.8028V19.1972M19.5 20.8028V24.0141M17.4091 9.56338H19.5M19.5 9.56338V14.3803M17.4091 14.3803H19.5M17.4091 19.1972H19.5M17.4091 24.0141H19.5M19.5 24.0141V29.3662M17.4091 29.3662H19.5M19.5 29.3662V34.1831M17.4091 34.1831H19.5" />
  <circle cx="28" cy="11" r="4.5" />
  <circle cx="28" cy="11" r="1.5" />
</svg>
