<svg width="40" height="40" viewBox="0 0 40 40" fill="none" xmlns="http://www.w3.org/2000/svg" stroke="#176ABD">
  <path d="M9.68571 33.0147H1M9.68571 33.0147H39M9.68571 33.0147V19.4118M1 33.0147V39H6.97143L9.14286 35.7353H30.8571L33.0286 39H39V33.0147M1 33.0147V11.7941L6.97143 5.80882H21.0857V4.72059H22.7143M39 33.0147V19.4118H34.6571M9.68571 19.4118V9.61765H21.0857V11.25H22.1714M9.68571 19.4118H14.0286M14.0286 19.4118V16.6912H21.0857V19.4118M14.0286 19.4118H21.0857M21.0857 19.4118H27.6M27.6 19.4118V16.6912H34.6571V19.4118M27.6 19.4118H34.6571M22.7143 4.72059V2H25.9714V4.72059M22.7143 4.72059H25.9714M25.9714 4.72059H27.6V11.25H26.5143M22.1714 11.25L23.2571 13.9706H24.3429M22.1714 11.25H26.5143M26.5143 11.25L25.4286 13.9706H24.3429M24.3429 16.1471V13.9706" />
  <circle cx="29" cy="26" r="3.5"/>
  <circle cx="18" cy="23" r="1.5"/>
  <circle cx="18" cy="29" r="1.5"/>
</svg>
