<svg width="289" height="46" viewBox="0 0 289 46" fill="none" xmlns="http://www.w3.org/2000/svg">
<g clip-path="url(#clip0)">
<path d="M30.6464 9.19999C32.1787 8.81665 33.7111 8.5611 35.2434 8.5611C36.3926 8.5611 37.6695 8.68888 38.8187 8.94444C38.9464 8.94444 39.0741 8.94443 39.2018 9.07221L42.9049 1.02222H31.2849L26.9434 10.6056C27.4541 10.35 27.9649 10.0944 28.6034 9.83888C29.2418 9.58332 29.8803 9.32777 30.6464 9.19999Z" fill="#B1B2B4"/>
<path d="M39.9683 10.7333C39.9683 10.8611 39.9683 10.8611 39.8406 10.9889L35.499 20.7C39.2021 20.8278 42.139 23.8944 42.139 27.4722C42.139 31.3056 39.0744 34.3722 35.2437 34.3722C31.5406 34.3722 28.6037 31.4333 28.476 27.8556L21.3252 37.8222C24.5175 42.1667 29.6252 44.9778 35.2437 44.9778C44.8206 44.9778 52.6098 37.1833 52.6098 27.6C52.7375 19.55 47.3744 12.7778 39.9683 10.7333Z" fill="#B1B2B4"/>
<path d="M29.8805 23.2556C30.1359 22.8722 30.5189 22.4889 30.902 22.2333C31.1574 21.9778 31.4128 21.7222 31.7959 21.5945C31.9236 21.5945 31.9235 21.4667 32.0512 21.4667C32.6897 21.0833 33.3282 20.8278 33.9666 20.7L38.6912 10.35C37.6697 10.0944 36.5205 9.96667 35.3712 9.96667C33.8389 9.96667 32.4343 10.2222 31.1574 10.4778C30.5189 10.6056 29.8805 10.8611 29.242 11.1167C28.0928 11.5 27.0712 12.1389 26.0497 12.7778C24.5174 13.8 22.9851 15.0778 21.8359 16.6111L21.5805 16.9945L20.8143 18.0167L10.982 31.6889C10.2159 32.7111 9.19432 33.2222 8.04509 33.2222H6.76817C4.98047 35.9056 2.42663 40.3778 0.255859 43.8278H9.83278C13.1528 43.8278 16.3451 42.2945 18.3882 39.4833L19.4097 38.0778L20.5589 36.5444L29.6251 23.8944L29.8805 23.2556Z" fill="#006CAA"/>
<path d="M66.1515 19.221C65.0069 19.221 64.0322 18.9603 63.2275 18.439C62.4342 17.9177 61.8789 17.2037 61.5615 16.297L63.2445 15.311C63.7205 16.6483 64.7065 17.317 66.2025 17.317C66.9392 17.317 67.4889 17.1753 67.8515 16.892C68.2255 16.5973 68.4125 16.2177 68.4125 15.753C68.4125 15.2657 68.2142 14.8973 67.8175 14.648C67.4209 14.3873 66.7182 14.104 65.7095 13.798C65.1429 13.628 64.6839 13.4693 64.3325 13.322C63.9812 13.1747 63.6072 12.9707 63.2105 12.71C62.8252 12.438 62.5362 12.1037 62.3435 11.707C62.1509 11.3103 62.0545 10.8457 62.0545 10.313C62.0545 9.259 62.4285 8.426 63.1765 7.814C63.9245 7.19066 64.8255 6.879 65.8795 6.879C66.8315 6.879 67.6645 7.11133 68.3785 7.576C69.0925 8.04066 69.6422 8.681 70.0275 9.497L68.3785 10.449C67.8799 9.33833 67.0469 8.783 65.8795 8.783C65.3129 8.783 64.8595 8.919 64.5195 9.191C64.1795 9.45166 64.0095 9.80866 64.0095 10.262C64.0095 10.704 64.1795 11.0553 64.5195 11.316C64.8709 11.5653 65.4999 11.8317 66.4065 12.115C66.8599 12.2623 67.1885 12.3757 67.3925 12.455C67.6079 12.523 67.9025 12.6363 68.2765 12.795C68.6619 12.9537 68.9509 13.1123 69.1435 13.271C69.3362 13.4297 69.5402 13.628 69.7555 13.866C69.9822 14.104 70.1409 14.376 70.2315 14.682C70.3222 14.988 70.3675 15.3337 70.3675 15.719C70.3675 16.7957 69.9765 17.6513 69.1945 18.286C68.4239 18.9093 67.4095 19.221 66.1515 19.221Z" fill="#2A2B31"/>
<path d="M76.1773 19.221C74.8966 19.221 73.8256 18.7903 72.9643 17.929C72.1143 17.0677 71.6893 16.008 71.6893 14.75C71.6893 13.4807 72.1143 12.421 72.9643 11.571C73.8256 10.7097 74.8966 10.279 76.1773 10.279C77.0046 10.279 77.7583 10.4773 78.4383 10.874C79.1183 11.2707 79.6283 11.8033 79.9683 12.472L78.3873 13.39C78.1946 12.982 77.8999 12.6647 77.5033 12.438C77.1179 12.2 76.6703 12.081 76.1603 12.081C75.4123 12.081 74.7833 12.336 74.2733 12.846C73.7746 13.356 73.5253 13.9907 73.5253 14.75C73.5253 15.5093 73.7746 16.144 74.2733 16.654C74.7833 17.164 75.4123 17.419 76.1603 17.419C76.6589 17.419 77.1066 17.3 77.5033 17.062C77.9113 16.824 78.2173 16.5067 78.4213 16.11L80.0023 17.011C79.6396 17.691 79.1183 18.2293 78.4383 18.626C77.7583 19.0227 77.0046 19.221 76.1773 19.221Z" fill="#2A2B31"/>
<path d="M85.8003 10.279C86.775 10.279 87.5627 10.5907 88.1633 11.214C88.764 11.8373 89.0643 12.693 89.0643 13.781V19H87.2283V13.968C87.2283 13.3333 87.0583 12.846 86.7183 12.506C86.3783 12.166 85.9137 11.996 85.3243 11.996C84.6783 11.996 84.157 12.2 83.7603 12.608C83.3637 13.0047 83.1653 13.6167 83.1653 14.444V19H81.3293V7.1H83.1653V11.588C83.7207 10.7153 84.599 10.279 85.8003 10.279Z" fill="#2A2B31"/>
<path d="M95.0532 19.221C93.8066 19.221 92.7469 18.7903 91.8743 17.929C91.0016 17.0677 90.5653 16.008 90.5653 14.75C90.5653 13.492 91.0016 12.4323 91.8743 11.571C92.7469 10.7097 93.8066 10.279 95.0532 10.279C96.3112 10.279 97.3709 10.7097 98.2323 11.571C99.1049 12.4323 99.5413 13.492 99.5413 14.75C99.5413 16.008 99.1049 17.0677 98.2323 17.929C97.3709 18.7903 96.3112 19.221 95.0532 19.221ZM93.1663 16.671C93.6763 17.181 94.3052 17.436 95.0532 17.436C95.8013 17.436 96.4303 17.181 96.9403 16.671C97.4502 16.161 97.7052 15.5207 97.7052 14.75C97.7052 13.9793 97.4502 13.339 96.9403 12.829C96.4303 12.319 95.8013 12.064 95.0532 12.064C94.3052 12.064 93.6763 12.319 93.1663 12.829C92.6562 13.339 92.4013 13.9793 92.4013 14.75C92.4013 15.5207 92.6562 16.161 93.1663 16.671Z" fill="#2A2B31"/>
<path d="M102.646 15.532C102.782 16.178 103.094 16.6767 103.581 17.028C104.069 17.368 104.664 17.538 105.366 17.538C106.341 17.538 107.072 17.1867 107.559 16.484L109.072 17.368C108.234 18.6033 106.993 19.221 105.349 19.221C103.967 19.221 102.85 18.8017 102 17.963C101.15 17.113 100.725 16.042 100.725 14.75C100.725 13.4807 101.145 12.421 101.983 11.571C102.822 10.7097 103.899 10.279 105.213 10.279C106.46 10.279 107.48 10.7153 108.273 11.588C109.078 12.4607 109.48 13.5203 109.48 14.767C109.48 14.9597 109.458 15.2147 109.412 15.532H102.646ZM102.629 14.036H107.627C107.503 13.3447 107.214 12.8233 106.76 12.472C106.318 12.1207 105.797 11.945 105.196 11.945C104.516 11.945 103.95 12.132 103.496 12.506C103.043 12.88 102.754 13.39 102.629 14.036Z" fill="#2A2B31"/>
<path d="M111.096 19V6.59H112.932V19H111.096Z" fill="#2A2B31"/>
<path d="M115.064 19V6.59H116.9V19H115.064Z" fill="#2A2B31"/>
<path d="M120.476 15.532C120.612 16.178 120.924 16.6767 121.411 17.028C121.899 17.368 122.494 17.538 123.196 17.538C124.171 17.538 124.902 17.1867 125.389 16.484L126.902 17.368C126.064 18.6033 124.823 19.221 123.179 19.221C121.797 19.221 120.68 18.8017 119.83 17.963C118.98 17.113 118.555 16.042 118.555 14.75C118.555 13.4807 118.975 12.421 119.813 11.571C120.652 10.7097 121.729 10.279 123.043 10.279C124.29 10.279 125.31 10.7153 126.103 11.588C126.908 12.4607 127.31 13.5203 127.31 14.767C127.31 14.9597 127.288 15.2147 127.242 15.532H120.476ZM120.459 14.036H125.457C125.333 13.3447 125.044 12.8233 124.59 12.472C124.148 12.1207 123.627 11.945 123.026 11.945C122.346 11.945 121.78 12.132 121.326 12.506C120.873 12.88 120.584 13.39 120.459 14.036Z" fill="#2A2B31"/>
<path d="M130.762 11.928C131.227 10.874 132.099 10.347 133.38 10.347V12.336C132.677 12.2907 132.065 12.4607 131.544 12.846C131.023 13.22 130.762 13.8433 130.762 14.716V19H128.926V10.5H130.762V11.928Z" fill="#2A2B31"/>
<path d="M134.524 14.716V12.948H140.814V14.716H134.524Z" fill="#2A2B31"/>
<path d="M150.194 12.829C150.715 13.101 151.123 13.475 151.418 13.951C151.712 14.427 151.86 14.9767 151.86 15.6C151.86 16.5747 151.514 17.385 150.823 18.031C150.131 18.677 149.287 19 148.29 19H143.19V7.1H147.916C148.89 7.1 149.712 7.41733 150.381 8.052C151.061 8.67533 151.401 9.45733 151.401 10.398C151.401 11.4293 150.998 12.2397 150.194 12.829ZM147.916 8.936H145.145V12.064H147.916C148.346 12.064 148.709 11.9167 149.004 11.622C149.298 11.316 149.446 10.942 149.446 10.5C149.446 10.058 149.298 9.68966 149.004 9.395C148.709 9.089 148.346 8.936 147.916 8.936ZM148.29 17.164C148.743 17.164 149.123 17.0053 149.429 16.688C149.746 16.3593 149.905 15.9627 149.905 15.498C149.905 15.0333 149.746 14.6423 149.429 14.325C149.123 13.9963 148.743 13.832 148.29 13.832H145.145V17.164H148.29Z" fill="#2A2B31"/>
<path d="M153.447 19V6.59H155.283V19H153.447Z" fill="#2A2B31"/>
<path d="M158.859 15.532C158.995 16.178 159.307 16.6767 159.794 17.028C160.282 17.368 160.877 17.538 161.579 17.538C162.554 17.538 163.285 17.1867 163.772 16.484L165.285 17.368C164.447 18.6033 163.206 19.221 161.562 19.221C160.18 19.221 159.063 18.8017 158.213 17.963C157.363 17.113 156.938 16.042 156.938 14.75C156.938 13.4807 157.358 12.421 158.196 11.571C159.035 10.7097 160.112 10.279 161.426 10.279C162.673 10.279 163.693 10.7153 164.486 11.588C165.291 12.4607 165.693 13.5203 165.693 14.767C165.693 14.9597 165.671 15.2147 165.625 15.532H158.859ZM158.842 14.036H163.84C163.716 13.3447 163.427 12.8233 162.973 12.472C162.531 12.1207 162.01 11.945 161.409 11.945C160.729 11.945 160.163 12.132 159.709 12.506C159.256 12.88 158.967 13.39 158.842 14.036Z" fill="#2A2B31"/>
<path d="M171.271 19.221C169.99 19.221 168.919 18.7903 168.058 17.929C167.208 17.0677 166.783 16.008 166.783 14.75C166.783 13.4807 167.208 12.421 168.058 11.571C168.919 10.7097 169.99 10.279 171.271 10.279C172.098 10.279 172.852 10.4773 173.532 10.874C174.212 11.2707 174.722 11.8033 175.062 12.472L173.481 13.39C173.288 12.982 172.994 12.6647 172.597 12.438C172.212 12.2 171.764 12.081 171.254 12.081C170.506 12.081 169.877 12.336 169.367 12.846C168.868 13.356 168.619 13.9907 168.619 14.75C168.619 15.5093 168.868 16.144 169.367 16.654C169.877 17.164 170.506 17.419 171.254 17.419C171.753 17.419 172.2 17.3 172.597 17.062C173.005 16.824 173.311 16.5067 173.515 16.11L175.096 17.011C174.733 17.691 174.212 18.2293 173.532 18.626C172.852 19.0227 172.098 19.221 171.271 19.221Z" fill="#2A2B31"/>
<path d="M183.937 19H181.744L178.259 15.073V19H176.423V7.1H178.259V14.257L181.557 10.5H183.801L180.061 14.665L183.937 19Z" fill="#2A2B31"/>
<path d="M194.454 10.279C195.417 10.279 196.194 10.5907 196.783 11.214C197.372 11.8373 197.667 12.676 197.667 13.73V19H195.831V13.849C195.831 13.2597 195.684 12.8063 195.389 12.489C195.094 12.1603 194.692 11.996 194.182 11.996C193.615 11.996 193.162 12.183 192.822 12.557C192.493 12.931 192.329 13.492 192.329 14.24V19H190.493V13.849C190.493 13.2597 190.351 12.8063 190.068 12.489C189.796 12.1603 189.405 11.996 188.895 11.996C188.34 11.996 187.886 12.1887 187.535 12.574C187.184 12.948 187.008 13.5033 187.008 14.24V19H185.172V10.5H187.008V11.52C187.552 10.6927 188.362 10.279 189.439 10.279C190.527 10.279 191.332 10.7267 191.853 11.622C192.42 10.7267 193.287 10.279 194.454 10.279Z" fill="#2A2B31"/>
<path d="M206.364 10.5H208.2V19H206.364V17.776C205.673 18.7393 204.681 19.221 203.389 19.221C202.222 19.221 201.224 18.7903 200.397 17.929C199.57 17.0563 199.156 15.9967 199.156 14.75C199.156 13.492 199.57 12.4323 200.397 11.571C201.224 10.7097 202.222 10.279 203.389 10.279C204.681 10.279 205.673 10.755 206.364 11.707V10.5ZM201.757 16.705C202.267 17.215 202.907 17.47 203.678 17.47C204.449 17.47 205.089 17.215 205.599 16.705C206.109 16.1837 206.364 15.532 206.364 14.75C206.364 13.968 206.109 13.322 205.599 12.812C205.089 12.2907 204.449 12.03 203.678 12.03C202.907 12.03 202.267 12.2907 201.757 12.812C201.247 13.322 200.992 13.968 200.992 14.75C200.992 15.532 201.247 16.1837 201.757 16.705Z" fill="#2A2B31"/>
<path d="M214.811 10.279C215.786 10.279 216.573 10.5907 217.174 11.214C217.775 11.8373 218.075 12.693 218.075 13.781V19H216.239V13.968C216.239 13.3333 216.069 12.846 215.729 12.506C215.389 12.166 214.924 11.996 214.335 11.996C213.689 11.996 213.168 12.2 212.771 12.608C212.374 13.0047 212.176 13.6167 212.176 14.444V19H210.34V10.5H212.176V11.588C212.731 10.7153 213.61 10.279 214.811 10.279Z" fill="#2A2B31"/>
<path d="M224.523 10.279C225.498 10.279 226.285 10.5907 226.886 11.214C227.487 11.8373 227.787 12.693 227.787 13.781V19H225.951V13.968C225.951 13.3333 225.781 12.846 225.441 12.506C225.101 12.166 224.636 11.996 224.047 11.996C223.401 11.996 222.88 12.2 222.483 12.608C222.086 13.0047 221.888 13.6167 221.888 14.444V19H220.052V10.5H221.888V11.588C222.443 10.7153 223.322 10.279 224.523 10.279Z" fill="#2A2B31"/>
<path d="M96.8655 29.1C98.4975 29.1 99.8519 29.6723 100.929 30.817C102.017 31.9617 102.561 33.3727 102.561 35.05C102.561 36.716 102.017 38.127 100.929 39.283C99.8519 40.4277 98.4975 41 96.8655 41H92.1905V29.1H96.8655ZM96.8655 39.13C97.9875 39.13 98.8999 38.7447 99.6025 37.974C100.317 37.2033 100.674 36.2287 100.674 35.05C100.674 33.86 100.317 32.8853 99.6025 32.126C98.8999 31.3553 97.9875 30.97 96.8655 30.97H94.1455V39.13H96.8655Z" fill="#2A2B31"/>
<path d="M110.956 32.5H112.792V41H110.956V39.776C110.265 40.7393 109.273 41.221 107.981 41.221C106.814 41.221 105.816 40.7903 104.989 39.929C104.162 39.0563 103.748 37.9967 103.748 36.75C103.748 35.492 104.162 34.4323 104.989 33.571C105.816 32.7097 106.814 32.279 107.981 32.279C109.273 32.279 110.265 32.755 110.956 33.707V32.5ZM106.349 38.705C106.859 39.215 107.499 39.47 108.27 39.47C109.041 39.47 109.681 39.215 110.191 38.705C110.701 38.1837 110.956 37.532 110.956 36.75C110.956 35.968 110.701 35.322 110.191 34.812C109.681 34.2907 109.041 34.03 108.27 34.03C107.499 34.03 106.859 34.2907 106.349 34.812C105.839 35.322 105.584 35.968 105.584 36.75C105.584 37.532 105.839 38.1837 106.349 38.705Z" fill="#2A2B31"/>
<path d="M116.768 33.928C117.233 32.874 118.105 32.347 119.386 32.347V34.336C118.683 34.2907 118.071 34.4607 117.55 34.846C117.029 35.22 116.768 35.8433 116.768 36.716V41H114.932V32.5H116.768V33.928Z" fill="#2A2B31"/>
<path d="M122.578 33.928C123.043 32.874 123.916 32.347 125.196 32.347V34.336C124.494 34.2907 123.882 34.4607 123.36 34.846C122.839 35.22 122.578 35.8433 122.578 36.716V41H120.742V32.5H122.578V33.928Z" fill="#2A2B31"/>
<path d="M130.167 41.221C128.92 41.221 127.86 40.7903 126.988 39.929C126.115 39.0677 125.679 38.008 125.679 36.75C125.679 35.492 126.115 34.4323 126.988 33.571C127.86 32.7097 128.92 32.279 130.167 32.279C131.425 32.279 132.484 32.7097 133.346 33.571C134.218 34.4323 134.655 35.492 134.655 36.75C134.655 38.008 134.218 39.0677 133.346 39.929C132.484 40.7903 131.425 41.221 130.167 41.221ZM128.28 38.671C128.79 39.181 129.419 39.436 130.167 39.436C130.915 39.436 131.544 39.181 132.054 38.671C132.564 38.161 132.819 37.5207 132.819 36.75C132.819 35.9793 132.564 35.339 132.054 34.829C131.544 34.319 130.915 34.064 130.167 34.064C129.419 34.064 128.79 34.319 128.28 34.829C127.77 35.339 127.515 35.9793 127.515 36.75C127.515 37.5207 127.77 38.161 128.28 38.671Z" fill="#2A2B31"/>
<path d="M140.786 32.279C141.76 32.279 142.548 32.5907 143.149 33.214C143.749 33.8373 144.05 34.693 144.05 35.781V41H142.214V35.968C142.214 35.3333 142.044 34.846 141.704 34.506C141.364 34.166 140.899 33.996 140.31 33.996C139.664 33.996 139.142 34.2 138.746 34.608C138.349 35.0047 138.151 35.6167 138.151 36.444V41H136.315V32.5H138.151V33.588C138.706 32.7153 139.584 32.279 140.786 32.279Z" fill="#2A2B31"/>
<path d="M157.179 41L154.663 36.665H152.351V41H150.396V29.1H155.156C156.221 29.1 157.122 29.474 157.859 30.222C158.607 30.9587 158.981 31.8597 158.981 32.925C158.981 33.6843 158.76 34.3813 158.318 35.016C157.887 35.6393 157.32 36.0927 156.618 36.376L159.321 41H157.179ZM152.351 30.936V34.914H155.156C155.677 34.914 156.119 34.7213 156.482 34.336C156.844 33.9507 157.026 33.4803 157.026 32.925C157.026 32.3697 156.844 31.8993 156.482 31.514C156.119 31.1287 155.677 30.936 155.156 30.936H152.351Z" fill="#2A2B31"/>
<path d="M166.265 32.5H168.101V41H166.265V39.912C165.71 40.7847 164.832 41.221 163.63 41.221C162.656 41.221 161.868 40.9093 161.267 40.286C160.667 39.6627 160.366 38.807 160.366 37.719V32.5H162.202V37.532C162.202 38.1667 162.372 38.654 162.712 38.994C163.052 39.334 163.517 39.504 164.106 39.504C164.752 39.504 165.274 39.3057 165.67 38.909C166.067 38.501 166.265 37.8833 166.265 37.056V32.5Z" fill="#2A2B31"/>
<path d="M171.847 34.846C171.847 35.1293 172 35.356 172.306 35.526C172.624 35.6847 173.003 35.8263 173.445 35.951C173.899 36.0643 174.352 36.2003 174.805 36.359C175.259 36.5177 175.638 36.7897 175.944 37.175C176.262 37.549 176.42 38.025 176.42 38.603C176.42 39.419 176.103 40.0593 175.468 40.524C174.845 40.9887 174.057 41.221 173.105 41.221C172.267 41.221 171.547 41.0453 170.946 40.694C170.346 40.3427 169.909 39.8553 169.637 39.232L171.218 38.314C171.513 39.13 172.142 39.538 173.105 39.538C174.069 39.538 174.55 39.2207 174.55 38.586C174.55 38.314 174.392 38.093 174.074 37.923C173.768 37.753 173.389 37.6113 172.935 37.498C172.493 37.3733 172.046 37.2317 171.592 37.073C171.139 36.9143 170.754 36.6537 170.436 36.291C170.13 35.917 169.977 35.4467 169.977 34.88C169.977 34.098 170.272 33.469 170.861 32.993C171.462 32.517 172.204 32.279 173.088 32.279C173.791 32.279 174.414 32.4377 174.958 32.755C175.514 33.061 175.939 33.4917 176.233 34.047L174.686 34.914C174.392 34.268 173.859 33.945 173.088 33.945C172.737 33.945 172.442 34.0243 172.204 34.183C171.966 34.3303 171.847 34.5513 171.847 34.846Z" fill="#2A2B31"/>
<path d="M179.169 34.846C179.169 35.1293 179.322 35.356 179.628 35.526C179.945 35.6847 180.325 35.8263 180.767 35.951C181.22 36.0643 181.673 36.2003 182.127 36.359C182.58 36.5177 182.96 36.7897 183.266 37.175C183.583 37.549 183.742 38.025 183.742 38.603C183.742 39.419 183.424 40.0593 182.79 40.524C182.166 40.9887 181.379 41.221 180.427 41.221C179.588 41.221 178.868 41.0453 178.268 40.694C177.667 40.3427 177.231 39.8553 176.959 39.232L178.54 38.314C178.834 39.13 179.463 39.538 180.427 39.538C181.39 39.538 181.872 39.2207 181.872 38.586C181.872 38.314 181.713 38.093 181.396 37.923C181.09 37.753 180.71 37.6113 180.257 37.498C179.815 37.3733 179.367 37.2317 178.914 37.073C178.46 36.9143 178.075 36.6537 177.758 36.291C177.452 35.917 177.299 35.4467 177.299 34.88C177.299 34.098 177.593 33.469 178.183 32.993C178.783 32.517 179.526 32.279 180.41 32.279C181.112 32.279 181.736 32.4377 182.28 32.755C182.835 33.061 183.26 33.4917 183.555 34.047L182.008 34.914C181.713 34.268 181.18 33.945 180.41 33.945C180.058 33.945 179.764 34.0243 179.526 34.183C179.288 34.3303 179.169 34.5513 179.169 34.846Z" fill="#2A2B31"/>
<path d="M186.99 30.885C186.763 31.1117 186.491 31.225 186.174 31.225C185.857 31.225 185.579 31.1117 185.341 30.885C185.114 30.647 185.001 30.3693 185.001 30.052C185.001 29.7347 185.114 29.4627 185.341 29.236C185.568 28.998 185.845 28.879 186.174 28.879C186.503 28.879 186.78 28.998 187.007 29.236C187.234 29.4627 187.347 29.7347 187.347 30.052C187.347 30.3693 187.228 30.647 186.99 30.885ZM185.256 41V32.5H187.092V41H185.256Z" fill="#2A2B31"/>
<path d="M195.956 32.5H197.792V41H195.956V39.776C195.265 40.7393 194.273 41.221 192.981 41.221C191.814 41.221 190.816 40.7903 189.989 39.929C189.162 39.0563 188.748 37.9967 188.748 36.75C188.748 35.492 189.162 34.4323 189.989 33.571C190.816 32.7097 191.814 32.279 192.981 32.279C194.273 32.279 195.265 32.755 195.956 33.707V32.5ZM191.349 38.705C191.859 39.215 192.499 39.47 193.27 39.47C194.041 39.47 194.681 39.215 195.191 38.705C195.701 38.1837 195.956 37.532 195.956 36.75C195.956 35.968 195.701 35.322 195.191 34.812C194.681 34.2907 194.041 34.03 193.27 34.03C192.499 34.03 191.859 34.2907 191.349 34.812C190.839 35.322 190.584 35.968 190.584 36.75C190.584 37.532 190.839 38.1837 191.349 38.705Z" fill="#2A2B31"/>
<path d="M267.646 16.6111C270.2 16.3555 272.499 15.9722 274.669 15.3333C273.903 12.5222 272.754 9.96666 271.222 7.79443C269.945 8.43332 268.285 8.94443 266.497 9.19999C267.136 11.5 267.519 14.0555 267.646 16.6111Z" fill="#C5282A"/>
<path d="M265.603 2.42779C265.22 2.42779 264.837 2.4278 264.454 2.30002C265.22 4.08891 265.859 6.00557 266.369 8.17779C268.03 7.92224 269.434 7.5389 270.711 6.90002C269.179 4.98335 267.519 3.45002 265.603 2.42779Z" fill="#C5282A"/>
<path d="M271.605 6.38888C271.988 6.13332 272.371 5.87777 272.754 5.62221C271.349 4.47221 269.817 3.57776 268.157 2.8111C269.434 3.83332 270.583 4.98332 271.605 6.38888Z" fill="#C5282A"/>
<path d="M261.262 2.4278C260.879 2.4278 260.368 2.55557 259.985 2.55557C258.197 3.57779 256.537 5.11113 255.133 7.02779C256.282 7.5389 257.814 8.05002 259.347 8.30557C259.857 6.00557 260.496 4.08891 261.262 2.4278Z" fill="#C5282A"/>
<path d="M269.945 43.7C272.371 42.2944 274.67 40.5055 276.458 38.3333C275.436 38.7166 274.415 38.9722 273.265 39.2278C272.244 40.8889 271.095 42.4222 269.945 43.7Z" fill="#C5282A"/>
<path d="M250.663 3.83334C249.131 4.72779 247.726 5.87779 246.577 7.15556C247.854 6.13334 249.259 5.11112 250.791 4.34446C250.663 4.0889 250.663 3.96112 250.663 3.83334Z" fill="#C5282A"/>
<path d="M260.24 9.45557C259.729 11.7556 259.346 14.1833 259.091 16.7389C260.368 16.8667 261.645 16.8667 262.922 16.8667C264.198 16.8667 265.475 16.8667 266.625 16.7389C266.369 14.1833 265.986 11.6278 265.475 9.45557C264.582 9.58334 263.688 9.58334 262.794 9.58334C261.9 9.58334 261.006 9.45557 260.24 9.45557Z" fill="#C5282A"/>
<path d="M262.922 8.43335C263.688 8.43335 264.582 8.43335 265.348 8.30557C264.837 6.00557 264.198 4.08891 263.305 2.30002C263.049 2.30002 262.794 2.30002 262.538 2.30002C261.772 4.08891 261.134 6.13335 260.623 8.30557C261.262 8.43335 262.028 8.43335 262.922 8.43335Z" fill="#C5282A"/>
<path d="M258.963 17.7611C258.836 19.6778 258.708 21.7222 258.708 23.6389C258.708 29.2611 259.346 34.6278 260.496 39.1C261.262 39.1 262.028 39.1 262.922 39.1C263.688 39.1 264.454 39.1 265.22 39.1C266.242 34.6278 267.008 29.2611 267.008 23.6389C267.008 21.5944 266.88 19.6778 266.753 17.7611C265.476 17.8889 264.199 17.8889 262.922 17.8889C261.517 18.0167 260.24 17.8889 258.963 17.7611Z" fill="#C5282A"/>
<path d="M254.495 7.79443C253.09 9.96666 251.813 12.5222 251.047 15.3333C253.218 15.9722 255.516 16.3555 257.942 16.6111C258.198 14.0555 258.581 11.5 259.092 9.19999C257.304 8.94443 255.772 8.43332 254.495 7.79443Z" fill="#C5282A"/>
<path d="M278.5 6.00556C277.479 5.11112 276.33 4.21668 275.053 3.57779C275.053 3.70557 275.053 3.83334 275.053 3.96112C276.33 4.47223 277.479 5.23889 278.5 6.00556Z" fill="#C5282A"/>
<path d="M252.834 5.49446C253.217 5.87779 253.6 6.13334 254.111 6.3889C255.132 5.11112 256.154 3.83335 257.431 2.9389C257.303 2.9389 257.048 3.06668 256.92 3.06668C255.516 3.70557 254.111 4.60001 252.834 5.49446Z" fill="#C5282A"/>
<path d="M268.412 1.66111C270.455 2.04444 272.243 2.68332 274.031 3.44999C274.031 3.32221 274.031 3.32222 274.031 3.19444C274.031 3.06666 274.031 3.06666 274.031 2.93889C272.754 2.3 271.477 1.78888 270.072 1.27777C269.561 1.40555 269.051 1.53333 268.412 1.66111Z" fill="#C5282A"/>
<path d="M268.029 23.7667C268.029 29.5167 267.391 34.7556 266.369 39.2278C268.54 39.1 270.583 38.7167 272.498 38.3333C274.669 34.3722 275.946 29.5167 275.946 24.15C275.946 21.4667 275.563 18.9111 275.052 16.4833C272.882 17.1222 270.455 17.5056 267.901 17.7611C267.901 19.6778 268.029 21.7222 268.029 23.7667Z" fill="#C5282A"/>
<path d="M255.898 1.40555C254.366 1.91666 252.961 2.55555 251.685 3.19444C251.685 3.44999 251.685 3.57777 251.812 3.83333C253.728 2.93888 255.771 2.3 257.814 1.78889C257.048 1.66111 256.409 1.53333 255.898 1.40555Z" fill="#C5282A"/>
<path d="M264.326 45.6167C264.965 45.6167 265.603 45.4889 266.114 45.4889C268.285 44.0833 270.2 42.0389 271.732 39.6111C269.945 39.9944 268.029 40.25 266.114 40.3778C265.603 42.1667 264.965 44.0833 264.326 45.6167Z" fill="#C5282A"/>
<path d="M260.751 40.25C261.262 42.2944 261.9 44.0833 262.666 45.4889C262.794 45.4889 262.922 45.4889 263.049 45.4889C263.688 43.9556 264.326 42.1667 264.965 40.25C264.326 40.25 263.56 40.25 262.922 40.25C262.156 40.3778 261.517 40.3778 260.751 40.25Z" fill="#C5282A"/>
<path d="M273.648 6.26111C273.265 6.64444 272.754 7.02777 272.243 7.28332C273.775 9.58332 274.925 12.1389 275.691 15.0778C276.968 14.6944 278.245 14.1833 279.394 13.6722C277.989 10.8611 276.074 8.30555 273.648 6.26111Z" fill="#C5282A"/>
<path d="M280.415 13.1611C281.309 12.65 282.203 12.1389 282.969 11.6278C280.798 8.81667 277.989 6.51667 274.669 4.85556C274.542 4.98334 274.414 5.23889 274.286 5.36666C276.968 7.66666 279.011 10.35 280.415 13.1611Z" fill="#C5282A"/>
<path d="M252.579 39.2278C251.174 38.8444 249.769 38.4611 248.62 38.0778C250.791 40.6333 253.472 42.8056 256.537 44.3389C255.005 42.9333 253.728 41.1444 252.579 39.2278Z" fill="#C5282A"/>
<path d="M257.942 17.7611C255.388 17.5056 252.962 17.1222 250.791 16.4833C250.153 18.9111 249.897 21.4667 249.897 24.15C249.897 29.5167 251.174 34.5 253.345 38.3333C255.261 38.7167 257.304 38.9722 259.347 39.2278C258.325 34.7556 257.687 29.5167 257.687 23.7667C257.687 21.7222 257.814 19.6778 257.942 17.7611Z" fill="#C5282A"/>
<path d="M260.879 0.383331C259.985 0.511109 259.091 0.638881 258.197 0.766659C259.091 0.894437 260.24 1.02222 261.262 1.02222C261.134 0.766665 261.007 0.511109 260.879 0.383331Z" fill="#C5282A"/>
<path d="M251.301 5.36668C251.301 5.2389 251.174 5.2389 251.301 5.36668C248.109 7.02779 245.3 9.32779 243.257 12.1389C243.768 12.5222 244.278 12.7778 244.917 13.1611C246.449 10.0945 248.62 7.41112 251.301 5.36668Z" fill="#C5282A"/>
<path d="M276.968 24.0222C276.968 29.1334 275.819 33.9889 273.903 37.95C275.18 37.5667 276.457 37.1834 277.606 36.8C280.288 33.0945 281.82 28.6222 281.82 23.7667C281.82 20.5722 281.182 17.5056 279.905 14.6945C278.756 15.2056 277.479 15.7167 276.074 16.1C276.585 18.6556 276.968 21.3389 276.968 24.0222Z" fill="#C5282A"/>
<path d="M262.921 1.02223C263.305 0.766673 263.56 0.51111 263.688 0.255554C263.56 0.255554 263.304 0.255554 263.177 0.255554C262.794 0.255554 262.538 0.255554 262.155 0.255554C262.283 0.51111 262.538 0.766673 262.921 1.02223Z" fill="#C5282A"/>
<path d="M249.769 16.1C248.237 15.5889 246.705 15.0778 245.428 14.4389C244.151 17.25 243.385 20.4445 243.385 23.7667C243.385 28.4945 244.917 32.8389 247.343 36.5445C248.748 37.1833 250.28 37.5667 251.94 38.0778C250.025 34.1167 248.876 29.3889 248.876 24.15C248.876 21.3389 249.131 18.6556 249.769 16.1Z" fill="#C5282A"/>
<path d="M271.094 44.2111C275.691 42.55 279.649 39.4833 282.458 35.5222C281.309 36.2889 279.905 37.0555 278.372 37.5667C276.457 40.25 274.031 42.55 271.094 44.2111Z" fill="#C5282A"/>
<path d="M253.473 7.28332C252.835 6.89999 252.324 6.51666 251.941 6.13333C249.387 8.17778 247.344 10.7333 245.812 13.4167C247.088 14.0556 248.493 14.5667 249.898 14.95C250.791 12.2667 251.941 9.58332 253.473 7.28332Z" fill="#C5282A"/>
<path d="M242.236 23.6389C242.236 20.1889 243.002 16.8667 244.406 13.9278C243.768 13.5444 243.257 13.2889 242.619 12.9055C241.853 14.0555 241.214 15.2056 240.831 16.3556C240.193 18.4 239.81 20.5722 239.81 22.8722C239.81 26.8333 240.831 30.5389 242.746 33.8611C243.513 34.5 244.534 35.0111 245.556 35.65C243.513 32.0722 242.236 27.9833 242.236 23.6389Z" fill="#C5282A"/>
<path d="M280.926 14.1833C282.203 17.1222 282.969 20.4444 282.969 23.7667C282.969 28.2389 281.692 32.4555 279.521 36.0333C281.309 35.2667 282.714 34.2444 283.863 33.2222C285.523 30.1555 286.417 26.7055 286.417 23C286.417 19.8055 285.778 16.8667 284.502 14.0555C284.246 13.5444 283.863 13.0333 283.608 12.5222C282.714 13.1611 281.82 13.6722 280.926 14.1833Z" fill="#C5282A"/>
<path d="M259.602 40.25C257.686 40.1222 255.771 39.8667 253.983 39.4833C255.516 41.9111 257.431 43.9556 259.602 45.3611C260.24 45.4889 260.751 45.4889 261.39 45.6167C260.751 43.9556 260.113 42.1667 259.602 40.25Z" fill="#C5282A"/>
<path d="M267.774 0.638891C266.88 0.511114 265.859 0.383332 264.965 0.255554C264.837 0.51111 264.709 0.766673 264.454 1.02223C265.603 1.02223 266.753 0.894447 267.774 0.638891Z" fill="#C5282A"/>
<path d="M273.648 4.47223C273.137 4.21668 272.754 4.0889 272.243 3.96112C272.626 4.21668 273.009 4.60002 273.52 4.85557C273.648 4.72779 273.648 4.60001 273.648 4.47223Z" fill="#C5282A"/>
<path d="M246.578 37.3111C245.684 36.9278 244.918 36.5444 244.151 36.0333C246.194 38.8444 249.004 41.2722 252.196 42.9333C250.025 41.4 248.11 39.4833 246.578 37.3111Z" fill="#C5282A"/>
<path d="M243.257 29.2611C243.129 29.2611 242.874 29.2611 242.746 29.2611C242.491 29.2611 242.108 29.1333 241.852 29.0055C241.597 28.8778 241.342 28.75 241.086 28.6222L237.511 26.7055C237.128 26.5778 237 26.1944 237 25.8111V24.2778C237 23.8944 237.128 23.6389 237.511 23.3833C237.511 23.3833 237.511 23.3833 237.638 23.3833V21.9778C237.255 21.85 237.128 21.4667 237.128 21.0833V19.55C237.128 19.1667 237.255 18.9111 237.638 18.6555C237.766 18.5278 238.022 18.5278 238.149 18.5278C238.277 18.5278 238.532 18.5278 238.66 18.6555L242.363 20.7C242.491 20.8278 242.746 20.9555 243.002 21.0833C243.257 21.2111 243.512 21.4667 243.768 21.7222C244.023 21.9778 244.279 22.2333 244.534 22.4889C244.789 22.7444 245.045 23.1278 245.172 23.5111C245.428 23.8944 245.555 24.2778 245.683 24.7889C245.811 25.3 245.938 25.8111 245.938 26.3222C245.938 26.8333 245.811 27.3444 245.683 27.7278C245.555 28.1111 245.3 28.4944 245.045 28.75C244.789 29.0055 244.406 29.2611 243.895 29.2611C243.512 29.2611 243.385 29.2611 243.257 29.2611Z" fill="black"/>
<path d="M243.257 29.0055C243.13 29.0055 243.002 29.0055 242.747 29.0055C242.491 29.0055 242.236 28.8778 241.853 28.75C241.597 28.6222 241.342 28.4944 241.214 28.4944L237.639 26.5778C237.384 26.45 237.256 26.1944 237.256 25.8111V24.2778C237.256 24.0222 237.384 23.7667 237.639 23.5111C237.639 23.5111 237.767 23.5111 237.767 23.3833V21.5944L237.639 21.4667C237.384 21.3389 237.256 21.0833 237.256 20.7V19.1667C237.256 18.9111 237.384 18.6555 237.639 18.4C237.767 18.2722 237.894 18.2722 238.022 18.2722C238.15 18.2722 238.277 18.2722 238.405 18.4L242.108 20.4444C242.236 20.5722 242.491 20.7 242.619 20.8278C242.874 20.9555 243.13 21.2111 243.385 21.4667C243.64 21.7222 243.896 21.9778 244.151 22.2333C244.407 22.4889 244.662 22.8722 244.79 23.2555C245.045 23.6389 245.173 24.0222 245.3 24.5333C245.428 25.0444 245.428 25.4278 245.428 26.0667C245.428 26.5778 245.3 27.0889 245.173 27.4722C245.045 27.8555 244.79 28.2389 244.534 28.4944C244.279 28.75 243.896 28.8778 243.513 29.0055C243.513 29.0055 243.385 29.0055 243.257 29.0055Z" fill="white"/>
<path d="M275.691 31.8167C275.436 31.8167 275.308 31.8167 275.053 31.8167C274.542 31.6889 274.031 31.5611 273.648 31.1778C273.265 30.7944 272.882 30.4111 272.754 29.9C272.626 29.3889 272.499 28.8778 272.371 28.3667C272.371 27.8556 272.371 27.2167 272.499 26.7056C272.626 26.1944 272.882 25.6833 273.137 25.1722C273.393 24.6611 273.903 24.2778 274.414 23.8944C274.925 23.5111 275.563 23.2556 276.202 23.1278C276.713 23 277.096 23 277.479 23C277.734 23 277.862 23 278.117 23C278.756 23.1278 279.267 23.3833 279.65 23.7667C280.033 24.15 280.416 24.5333 280.543 25.1722C280.671 25.6833 280.799 26.1944 280.799 26.8333C280.799 27.3444 280.671 27.9833 280.543 28.4944C280.416 29.0056 280.16 29.5167 279.777 30.0278C279.394 30.4111 279.011 30.7944 278.5 31.1778C277.99 31.4333 277.479 31.6889 276.84 31.8167C276.33 31.8167 275.947 31.8167 275.691 31.8167Z" fill="black"/>
<path d="M275.691 31.6889C275.436 31.6889 275.308 31.6889 275.053 31.6889C274.542 31.5611 274.031 31.4333 273.648 31.05C273.265 30.7944 273.01 30.4111 272.754 29.9C272.626 29.5167 272.499 29.0056 272.371 28.4944C272.371 27.9833 272.371 27.4722 272.499 26.9611C272.626 26.45 272.882 25.9389 273.137 25.5556C273.393 25.0444 273.776 24.6611 274.286 24.4055C274.797 24.0222 275.308 23.7667 275.946 23.6389C276.33 23.5111 276.84 23.5111 277.223 23.5111C277.479 23.5111 277.606 23.5111 277.862 23.5111C278.373 23.6389 278.883 23.8944 279.266 24.15C279.65 24.5333 279.905 24.9167 280.16 25.4278C280.288 25.9389 280.416 26.45 280.416 26.9611C280.416 27.4722 280.288 27.9833 280.16 28.4944C280.033 29.0056 279.777 29.5167 279.394 29.9C279.139 30.2833 278.628 30.6667 278.245 30.9222C277.734 31.1778 277.223 31.4333 276.585 31.5611C276.33 31.5611 275.946 31.6889 275.691 31.6889Z" fill="white"/>
<path d="M282.075 30.2833C281.948 30.2833 281.692 30.2833 281.565 30.1555C281.309 30.0278 281.054 29.6444 281.054 29.2611V27.6C281.054 27.2167 281.309 26.8333 281.565 26.7056V25.3C281.309 25.1722 281.054 24.7889 281.054 24.4055V22.6167C281.054 22.2333 281.309 21.85 281.565 21.7222L283.735 20.5722C283.863 20.4444 283.991 20.4444 284.246 20.4444C284.501 20.4444 284.884 20.5722 285.012 20.8278V20.7C285.012 20.3167 285.268 19.9333 285.523 19.8055L287.821 18.5278C287.949 18.4 288.077 18.4 288.332 18.4C288.46 18.4 288.715 18.4 288.843 18.5278C289.098 18.6555 289.354 19.0389 289.354 19.4222V20.9555C289.354 21.3389 289.098 21.7222 288.843 21.85V26.1944C288.843 26.5778 288.588 26.9611 288.332 27.0889L286.545 27.9833C286.417 28.1111 286.289 28.1111 286.034 28.1111C285.778 28.1111 285.523 27.9833 285.268 27.7278V28.1111C285.268 28.4944 285.012 28.8778 284.757 29.0055L282.586 30.1555C282.458 30.2833 282.203 30.2833 282.075 30.2833Z" fill="black"/>
<path d="M282.076 30.1555C281.948 30.1555 281.82 30.1555 281.693 30.0278C281.437 29.9 281.31 29.6444 281.31 29.2611V27.6C281.31 27.3444 281.437 26.9611 281.82 26.8333H281.948V25.1722C281.948 25.1722 281.82 25.1722 281.82 25.0444C281.565 24.9167 281.437 24.6611 281.437 24.2778V22.4889C281.437 22.2333 281.565 21.85 281.82 21.7222L283.991 20.5722C284.119 20.5722 284.246 20.4444 284.374 20.4444C284.63 20.4444 284.885 20.5722 285.013 20.7L285.396 21.0833V20.4444C285.396 20.1889 285.523 19.8055 285.779 19.6778L288.077 18.4C288.205 18.2722 288.333 18.2722 288.46 18.2722C288.588 18.2722 288.716 18.2722 288.843 18.4C289.099 18.5278 289.226 18.7833 289.226 19.0389V20.5722C289.226 20.8278 289.099 21.2111 288.843 21.3389L288.716 21.4667V25.9389C288.716 26.1944 288.588 26.5778 288.333 26.7056L286.545 27.6C286.417 27.6 286.29 27.7278 286.162 27.7278C285.906 27.7278 285.651 27.6 285.523 27.4722L285.14 26.9611V27.8556C285.14 28.1111 285.013 28.4944 284.757 28.6222L282.586 29.7722C282.331 30.0278 282.203 30.1555 282.076 30.1555Z" fill="white"/>
<path d="M252.706 32.3278C252.579 32.3278 252.451 32.3278 252.451 32.3278L249.003 31.3056C248.875 31.3056 248.875 31.3056 248.748 31.1778C248.62 31.1778 248.62 31.1778 248.492 31.1778L246.194 30.5389C245.683 30.4111 245.428 29.9 245.428 29.5167L245.555 27.9833C245.555 27.7278 245.811 27.3444 246.066 27.2167C246.194 27.0889 246.322 27.0889 246.577 27.0889L246.96 25.9389C246.705 25.6833 246.705 25.4278 246.705 25.1722L246.832 23.7667C246.832 23.5111 247.088 23.1278 247.343 23C247.471 22.8722 247.726 22.8722 247.854 22.8722C247.982 22.8722 248.109 22.8722 248.109 22.8722L252.579 24.2778C252.962 24.4056 253.345 24.7889 253.345 25.3L253.217 26.7056C253.217 26.9611 253.089 27.2167 252.834 27.4722L253.089 29.1333C253.472 29.2611 253.728 29.6444 253.728 30.1556V31.6889C253.728 31.9444 253.6 32.3278 253.345 32.4556C253.089 32.3278 252.962 32.3278 252.706 32.3278Z" fill="black"/>
<path d="M252.706 32.2C252.578 32.2 252.578 32.2 252.45 32.2L249.003 31.1778C248.875 31.1778 248.875 31.05 248.747 31.05C248.62 31.05 248.62 31.05 248.492 31.05L246.193 30.4111C245.81 30.2833 245.555 29.9 245.683 29.5167L245.81 27.9833C245.81 27.7278 245.938 27.4722 246.193 27.3444C246.321 27.2167 246.449 27.2167 246.704 27.2167L247.215 25.8111C246.96 25.6833 246.832 25.4278 246.96 25.0444L247.087 23.6389C247.087 23.3833 247.215 23.1278 247.47 23C247.598 22.8722 247.726 22.8722 247.981 22.8722C248.109 22.8722 248.109 22.8722 248.236 22.8722L252.706 24.2778C253.089 24.4056 253.344 24.7889 253.217 25.0444L253.089 26.45C253.089 26.7055 252.961 26.9611 252.706 27.0889L253.089 29.0055C253.472 29.1333 253.727 29.3889 253.727 29.7722V31.3056C253.727 31.5611 253.6 31.8167 253.344 31.9444C253.089 32.0722 252.833 32.2 252.706 32.2Z" fill="white"/>
<path d="M269.433 32.7111C269.178 32.7111 268.795 32.5833 268.667 32.3278C268.54 32.5833 268.156 32.7111 267.901 32.7111H264.581C264.07 32.7111 263.56 32.2 263.56 31.6889V30.1555C263.56 29.7722 263.815 29.3889 264.07 29.2611V27.7278C263.687 27.6 263.56 27.2167 263.56 26.8333V25.3C263.56 24.7889 264.07 24.2778 264.581 24.2778H268.923C269.05 24.2778 269.178 24.2778 269.306 24.2778C269.561 24.2778 269.689 24.2778 269.944 24.4055C270.2 24.4055 270.327 24.5333 270.583 24.6611C270.838 24.7889 271.093 24.9167 271.349 25.1722C271.604 25.4278 271.732 25.6833 271.86 25.9389C271.987 26.1944 271.987 26.5778 271.987 27.0889C271.987 27.4722 271.987 27.7278 271.86 28.1111C271.86 28.2389 271.604 28.6222 271.349 28.8778L271.476 29.1333C271.987 29.1333 272.498 29.6444 272.498 30.1555V31.8167C272.498 32.3278 271.987 32.8389 271.476 32.8389H269.433V32.7111Z" fill="black"/>
<path d="M269.434 32.5833C269.178 32.5833 268.795 32.4555 268.667 32.2L268.54 32.0722C268.412 32.4555 268.157 32.7111 267.774 32.7111H264.454C263.943 32.7111 263.688 32.3278 263.688 31.9444V30.4111C263.688 30.0278 263.943 29.7722 264.198 29.6444V27.8555C263.815 27.7278 263.688 27.4722 263.688 27.0889V25.5555C263.688 25.0444 264.071 24.7889 264.454 24.7889H268.795C268.923 24.7889 269.051 24.7889 269.178 24.7889C269.306 24.7889 269.561 24.7889 269.817 24.9167C270.072 24.9167 270.2 25.0444 270.455 25.1722C270.711 25.3 270.966 25.4278 271.094 25.6833C271.349 25.9389 271.477 26.1944 271.604 26.45C271.732 26.7055 271.732 27.0889 271.732 27.4722C271.732 27.8555 271.732 28.1111 271.604 28.3667C271.604 28.4944 271.349 28.8778 271.094 29.1333L271.349 29.6444H271.477C271.987 29.6444 272.243 30.0278 272.243 30.4111V32.0722C272.243 32.5833 271.86 32.8389 271.477 32.8389H269.434V32.5833Z" fill="white"/>
<path d="M259.984 32.7111C259.729 32.7111 259.346 32.5833 259.218 32.3278C258.963 32.5833 258.707 32.7111 258.452 32.7111H255.132C254.621 32.7111 254.11 32.2 254.11 31.6889V30.1555C254.11 29.7722 254.366 29.3889 254.621 29.2611V27.7278C254.238 27.6 254.11 27.2167 254.11 26.8333V25.3C254.11 24.7889 254.621 24.2778 255.132 24.2778H259.473C259.601 24.2778 259.729 24.2778 259.857 24.2778C260.112 24.2778 260.24 24.2778 260.495 24.4055C260.75 24.4055 260.878 24.5333 261.133 24.6611C261.389 24.7889 261.644 24.9167 261.9 25.1722C262.155 25.4278 262.283 25.6833 262.41 25.9389C262.538 26.1944 262.538 26.5778 262.538 27.0889C262.538 27.4722 262.538 27.8555 262.41 28.1111C262.41 28.2389 262.155 28.6222 261.9 28.8778L262.027 29.1333C262.538 29.1333 263.049 29.6444 263.049 30.1555V31.8167C263.049 32.3278 262.538 32.8389 262.027 32.8389H259.984V32.7111Z" fill="black"/>
<path d="M259.984 32.5833C259.729 32.5833 259.346 32.4555 259.218 32.2L259.091 32.0722C258.963 32.4555 258.708 32.7111 258.324 32.7111H255.004C254.494 32.7111 254.238 32.3278 254.238 31.9444V30.4111C254.238 30.0278 254.494 29.7722 254.749 29.6444V27.8555C254.366 27.7278 254.238 27.4722 254.238 27.0889V25.5555C254.238 25.0444 254.621 24.7889 255.004 24.7889H259.346C259.474 24.7889 259.601 24.7889 259.729 24.7889C259.857 24.7889 260.112 24.7889 260.368 24.9167C260.623 24.9167 260.751 25.0444 261.006 25.1722C261.261 25.3 261.517 25.4278 261.644 25.6833C261.9 25.9389 262.028 26.1944 262.155 26.45C262.283 26.7055 262.283 27.0889 262.283 27.4722C262.283 27.8555 262.283 28.1111 262.155 28.3667C262.155 28.4944 261.9 28.8778 261.644 29.1333L261.9 29.6444H262.028C262.538 29.6444 262.794 30.0278 262.794 30.4111V32.0722C262.794 32.5833 262.411 32.8389 262.028 32.8389H259.984V32.5833Z" fill="white"/>
<path d="M238.021 24.2778L238.66 24.5333V21.2111L238.021 20.9555V19.4222L241.725 21.4667C241.852 21.5944 241.98 21.5944 242.235 21.7222C242.491 21.85 242.618 21.9778 242.874 22.2333C243.129 22.4889 243.257 22.6167 243.512 22.8722C243.768 23.1278 243.895 23.3833 244.023 23.7667C244.151 24.15 244.278 24.4055 244.406 24.7889C244.534 25.1722 244.534 25.5555 244.534 26.0667C244.534 26.45 244.534 26.8333 244.406 27.2167C244.278 27.4722 244.151 27.7278 244.023 27.8555C243.895 27.9833 243.64 28.1111 243.512 28.1111C243.257 28.1111 243.129 28.1111 242.874 28.1111C242.618 28.1111 242.363 27.9833 242.235 27.9833C241.98 27.8555 241.852 27.8555 241.597 27.7278L238.021 25.8111V24.2778ZM240.958 25.5555C241.086 25.6833 241.214 25.6833 241.341 25.6833C241.469 25.6833 241.597 25.6833 241.725 25.5555C241.852 25.4278 241.852 25.4278 241.98 25.3C241.98 25.1722 242.108 25.0444 242.108 24.7889C242.108 24.5333 242.108 24.4055 241.98 24.15C241.98 23.8944 241.852 23.7667 241.725 23.6389C241.597 23.5111 241.469 23.3833 241.341 23.2555C241.214 23.1278 241.086 23 240.958 23V25.5555Z" fill="black"/>
<path d="M279.649 26.8333C279.649 27.3444 279.521 27.7278 279.393 28.1111C279.266 28.4944 279.01 28.8778 278.755 29.2611C278.5 29.6444 278.117 29.9 277.733 30.1555C277.35 30.4111 276.84 30.5389 276.329 30.6667C275.818 30.7944 275.307 30.7944 274.924 30.7944C274.541 30.6667 274.158 30.5389 273.903 30.4111C273.647 30.1555 273.392 29.9 273.264 29.5167C273.136 29.1333 273.009 28.75 273.009 28.3667C273.009 27.8555 273.009 27.4722 273.136 27.0889C273.264 26.7055 273.392 26.1944 273.647 25.9389C273.903 25.5556 274.158 25.3 274.669 24.9167C275.052 24.6611 275.563 24.4055 276.073 24.2778C276.584 24.15 277.095 24.15 277.606 24.15C277.989 24.2778 278.372 24.4056 278.627 24.6611C278.883 24.9167 279.138 25.1722 279.266 25.5555C279.649 25.9389 279.649 26.3222 279.649 26.8333ZM277.35 27.3444C277.35 27.2167 277.35 26.9611 277.223 26.8333C277.223 26.7055 277.095 26.5778 276.967 26.45C276.84 26.3222 276.84 26.3222 276.712 26.1944C276.584 26.0667 276.457 26.1944 276.329 26.1944C276.201 26.1944 276.073 26.3222 275.946 26.45C275.818 26.5778 275.818 26.7055 275.69 26.8333C275.563 26.9611 275.563 27.0889 275.563 27.3444C275.563 27.4722 275.563 27.7278 275.563 27.8555C275.563 27.9833 275.563 28.2389 275.69 28.3667C275.69 28.4944 275.818 28.6222 275.946 28.75C276.073 28.8778 276.073 28.8778 276.201 29.0055C276.329 29.0055 276.456 29.0055 276.584 29.0055C276.712 29.0055 276.84 28.8778 276.967 28.8778C277.095 28.75 277.095 28.6222 277.223 28.4944C277.35 28.3667 277.35 28.2389 277.35 27.9833C277.35 27.7278 277.35 27.6 277.35 27.3444Z" fill="black"/>
<path d="M286.162 27.0889L283.735 24.4055V26.8333L284.374 26.5778V28.1111L282.203 29.2611V27.6L282.714 27.3444V24.0222L282.203 24.2778V22.4889L284.374 21.3389L286.8 24.15V21.7222L286.162 21.9778V20.4444L288.46 19.1667V20.7L287.822 20.9555L287.949 25.9389L286.162 27.0889Z" fill="black"/>
<path d="M249.258 30.2833L249.386 28.75L250.025 28.8778L249.897 28.1111L248.62 27.7278L248.365 28.3667L248.875 28.4944L248.748 30.0278L246.449 29.3889L246.577 27.8556L247.088 27.9833L248.109 25.1722L247.598 25.0444L247.726 23.6389L252.195 25.0444L252.068 26.45L251.557 26.3222L252.195 29.6444L252.706 29.7722V31.3056L249.258 30.2833ZM249.386 25.6833L248.875 26.8333L249.642 27.0889L249.386 25.6833Z" fill="black"/>
<path d="M270.839 30.1555L269.945 28.6222C270.328 28.3667 270.711 27.8555 270.711 27.7278C270.839 27.6 270.839 27.3444 270.839 27.0889C270.839 26.8333 270.839 26.5778 270.711 26.3222C270.583 26.0666 270.583 25.9389 270.456 25.8111C270.328 25.6833 270.2 25.5555 270.073 25.5555C269.945 25.4278 269.817 25.4278 269.562 25.4278C269.434 25.4278 269.306 25.4278 269.179 25.4278C269.051 25.4278 268.923 25.4278 268.796 25.4278H264.454V26.8333H264.965V30.1555H264.454V31.6889H267.774V30.1555H267.263V29.2611C267.263 29.2611 267.519 29.2611 268.03 29.1333L268.796 30.5389L269.434 31.5611H269.689H271.477V29.9H270.839V30.1555ZM267.391 26.8333C267.519 26.8333 267.646 26.8333 267.774 26.8333C267.902 26.8333 268.03 26.8333 268.157 26.8333C268.285 26.8333 268.413 26.9611 268.413 26.9611C268.54 27.0889 268.54 27.0889 268.54 27.2167C268.54 27.3444 268.54 27.4722 268.413 27.4722C268.285 27.6 268.285 27.6 268.157 27.6C268.03 27.6 267.902 27.6 267.774 27.6C267.646 27.6 267.519 27.6 267.391 27.6V26.8333Z" fill="black"/>
<path d="M261.389 30.1555L260.496 28.6222C260.879 28.3667 261.262 27.8555 261.262 27.7278C261.389 27.6 261.389 27.3444 261.389 27.0889C261.389 26.8333 261.389 26.5778 261.262 26.3222C261.134 26.0666 261.134 25.9389 261.006 25.8111C260.879 25.6833 260.751 25.5555 260.623 25.5555C260.496 25.4278 260.368 25.4278 260.113 25.4278C259.985 25.4278 259.857 25.4278 259.73 25.4278C259.602 25.4278 259.474 25.4278 259.346 25.4278H255.005V26.8333H255.516V30.1555H255.005V31.6889H258.325V30.1555H257.814V29.2611C257.814 29.2611 258.07 29.2611 258.58 29.1333L259.346 30.5389L259.985 31.5611H260.24H262.028V29.9H261.389V30.1555ZM257.814 26.8333C257.942 26.8333 258.069 26.8333 258.197 26.8333C258.325 26.8333 258.453 26.8333 258.58 26.8333C258.708 26.8333 258.836 26.9611 258.836 26.9611C258.963 27.0889 258.963 27.0889 258.963 27.2167C258.963 27.3444 258.963 27.4722 258.836 27.4722C258.708 27.6 258.708 27.6 258.58 27.6C258.453 27.6 258.325 27.6 258.197 27.6C258.069 27.6 257.942 27.6 257.814 27.6V26.8333Z" fill="black"/>
</g>
<defs>
<clipPath id="clip0">
<rect width="289" height="46" fill="white"/>
</clipPath>
</defs>
</svg>
