<svg width="32" height="32" viewBox="0 0 32 32" fill="none" xmlns="http://www.w3.org/2000/svg">
<path d="M12.7105 18.7884C11.5702 19.5697 11 20.8625 11 22.667C11 25.3737 14.3169 30.0003 17.3079 30.0003C20.2989 30.0003 22.0335 30.0003 24.961 30.0003C27.8885 30.0003 29.6667 27.4332 29.6667 25.3737C29.6667 22.4735 29.6667 19.5732 29.6667 16.673C29.6667 15.5684 28.7712 14.673 27.6667 14.673H27.6606C26.5594 14.673 25.6667 15.5657 25.6667 16.667" stroke="#176ABD" stroke-linecap="round"/>
<path d="M13.6543 20.2969V6.67074C13.6543 5.56707 14.549 4.67236 15.6527 4.67236C15.6545 4.67236 15.6564 4.67237 15.6582 4.67237C16.7658 4.67543 17.6621 5.5742 17.6621 6.68183V17.0615" stroke="#176ABD" stroke-linecap="round"/>
<path d="M17.6621 16.6724V14.0105C17.6621 12.9002 18.5622 12.0002 19.6724 12.0002C20.7827 12.0002 21.6828 12.9002 21.6828 14.0105V16.6724" stroke="#176ABD" stroke-linecap="round" stroke-linejoin="round"/>
<path d="M21.6665 16.4774V14.6691C21.6665 13.5645 22.5619 12.6691 23.6665 12.6691C24.7711 12.6691 25.6665 13.5645 25.6665 14.6691V16.6691" stroke="#176ABD" stroke-linecap="round" stroke-linejoin="round"/>
<path d="M6 2L6 20" stroke="#176ABD" stroke-linecap="round" stroke-linejoin="round"/>
<path d="M3.33317 4.00019L5.99984 1.33333L8.6665 4" stroke="#176ABD" stroke-linecap="round" stroke-linejoin="round"/>
<path d="M8.6665 17.3333L5.99984 20L3.33317 17.3333" stroke="#176ABD" stroke-linecap="round" stroke-linejoin="round"/>
</svg>
