<svg width="18" height="16" viewBox="0 0 18 16" fill="none" xmlns="http://www.w3.org/2000/svg">
<path d="M10.3602 14.3023C10.3602 14.3023 14.9648 9.69773 16.1159 8.54659C17.267 7.39545 17.8426 4.51761 15.8281 2.50312C13.8136 0.488634 10.9358 1.0642 9.78466 2.21534C8.63352 3.36648 2.59006 9.40994 2.01449 9.98551C1.43892 10.5611 0.575568 12.5756 2.30227 14.3023C4.02898 16.029 6.04347 15.1656 6.61904 14.5901C7.1946 14.0145 13.5259 7.68324 14.1014 7.10767C14.677 6.5321 14.9648 5.09318 14.1014 4.22983C13.2381 3.36648 11.7992 3.65426 11.2236 4.22983C10.648 4.8054 5.75568 9.69773 5.75568 9.69773" stroke="#176ABD" stroke-linecap="round" stroke-linejoin="round"/>
</svg>
