<svg width="22" height="9" viewBox="0 0 22 9" fill="none" xmlns="http://www.w3.org/2000/svg">
<path d="M3.96 0.599938C4.712 0.599938 5.34 0.851938 5.844 1.35594C6.348 1.85994 6.6 2.48794 6.6 3.23994C6.6 3.99194 6.348 4.61994 5.844 5.12394C5.34 5.62794 4.712 5.87994 3.96 5.87994H1.8V8.99994H0.96V0.599938H3.96ZM3.96 5.08794C4.48 5.08794 4.908 4.91594 5.244 4.57194C5.588 4.21994 5.76 3.77594 5.76 3.23994C5.76 2.70394 5.588 2.26394 5.244 1.91994C4.908 1.56794 4.48 1.39194 3.96 1.39194H1.8V5.08794H3.96ZM11.2781 0.599938C12.4221 0.599938 13.3661 1.00794 14.1101 1.82394C14.8621 2.63194 15.2381 3.62394 15.2381 4.79994C15.2381 5.97594 14.8621 6.97194 14.1101 7.78794C13.3661 8.59594 12.4221 8.99994 11.2781 8.99994H8.03813V0.599938H11.2781ZM11.2781 8.20794C12.1981 8.20794 12.9501 7.87994 13.5341 7.22394C14.1261 6.56794 14.4221 5.75994 14.4221 4.79994C14.4221 3.83994 14.1261 3.03194 13.5341 2.37594C12.9501 1.71994 12.1981 1.39194 11.2781 1.39194H8.87813V8.20794H11.2781ZM21.4148 1.39194H17.5148V4.48794H21.2348V5.27994H17.5148V8.99994H16.6748V0.599938H21.4148V1.39194Z" fill="#176ABD"/>
</svg>
