<svg width="44" height="44" viewBox="0 0 44 44" fill="none" xmlns="http://www.w3.org/2000/svg">
<path d="M16.7001 10.5096C17.3741 10.5421 17.9863 10.9123 18.3282 11.4941L19.7822 13.9685C20.1146 14.5341 20.1484 15.2267 19.8728 15.822L18.6255 18.5162C18.6255 18.5162 19.1881 20.8561 21.1662 22.8342C23.1443 24.8123 25.4761 25.3668 25.4761 25.3668L28.1696 24.1198C28.7652 23.844 29.4583 23.8781 30.024 24.2109L32.5073 25.6721C33.0885 26.0141 33.4583 26.6259 33.4907 27.2995L33.5309 28.1335C33.6625 30.8641 31.0917 32.8606 28.5764 31.7895C25.3521 30.4165 21.3093 28.3093 18.5002 25.5002C15.6911 22.6911 13.5839 18.6483 12.2109 15.424C11.1398 12.9087 13.1363 10.3379 15.867 10.4695L16.7001 10.5096Z" stroke="#176ABD" stroke-linejoin="round"/>
</svg>
