<svg width="24" height="24" viewBox="0 0 24 24" fill="none" stroke="none" xmlns="http://www.w3.org/2000/svg">
  <path d="M5.70012 1.50964C6.37413 1.54212 6.98632 1.91229 7.32819 2.49408L8.78221 4.96854C9.11456 5.53412 9.14841 6.22673 8.87281 6.82203L7.6255 9.5162C7.6255 9.5162 8.18812 11.8561 10.1662 13.8342C12.1443 15.8123 14.4761 16.3668 14.4761 16.3668L17.1696 15.1198C17.7652 14.844 18.4583 14.8781 19.024 15.2109L21.5073 16.6721C22.0885 17.0141 22.4583 17.6259 22.4907 18.2995L22.5309 19.1335C22.6625 21.8641 20.0917 23.8606 17.5764 22.7895C14.3521 21.4165 10.3093 19.3093 7.5002 16.5002C4.69109 13.6911 2.58389 9.64827 1.21092 6.42404C0.139835 3.90873 2.13626 1.3379 4.86695 1.46949L5.70012 1.50964Z" stroke-linejoin="round"/>
</svg>
