<svg width="66" height="66" viewBox="0 0 66 66" fill="none" xmlns="http://www.w3.org/2000/svg">
<path d="M33.0005 57.1464L32.6923 57.5401C32.8733 57.6818 33.1276 57.6818 33.3086 57.5401L33.0005 57.1464ZM33.0005 57.1464C33.3086 57.5401 33.3088 57.54 33.309 57.5398L33.3099 57.5391L33.3128 57.5368L33.3237 57.5283L33.365 57.4955C33.4012 57.4667 33.4543 57.4241 33.5233 57.3682C33.6612 57.2563 33.8626 57.091 34.1182 56.8754C34.6295 56.4443 35.3584 55.8121 36.2323 55.0046C37.9795 53.3904 40.3099 51.0728 42.6415 48.2596C47.2885 42.653 52.0127 34.9919 52.0127 26.9634C52.0127 16.6752 43.4902 8.35367 33.0005 8.35367C22.5107 8.35367 13.9883 16.6752 13.9883 26.9634C13.9883 34.9919 18.7125 42.653 23.3594 48.2596C25.6911 51.0728 28.0214 53.3904 29.7686 55.0046C30.6426 55.8121 31.3714 56.4443 31.8827 56.8754C32.1384 57.091 32.3397 57.2563 32.4777 57.3682C32.5466 57.4241 32.5998 57.4667 32.6359 57.4955L32.6773 57.5283L32.6881 57.5368L32.6911 57.5391L32.6919 57.5398C32.6922 57.54 32.6923 57.5401 33.0005 57.1464Z" fill="#176ABD" stroke="white" stroke-linejoin="round"/>
<path d="M34.4455 21.9329C35.0864 21.7726 35.7274 21.6657 36.3683 21.6657C36.849 21.6657 37.3832 21.7191 37.8639 21.826C37.9173 21.826 37.9707 21.826 38.0241 21.8794L39.5731 18.5122H34.7125L32.8965 22.5208C33.1101 22.4139 33.3238 22.307 33.5909 22.2001C33.8579 22.0932 34.125 21.9863 34.4455 21.9329Z" fill="white"/>
<path d="M38.3432 22.5746C38.3432 22.6281 38.3432 22.6281 38.2898 22.6815L36.4738 26.7436C38.0227 26.7971 39.2512 28.0798 39.2512 29.5764C39.2512 31.1799 37.9693 32.4626 36.3669 32.4626C34.818 32.4626 33.5895 31.2333 33.5361 29.7367L30.5449 33.9057C31.8802 35.723 34.0168 36.8989 36.3669 36.8989C40.3729 36.8989 43.6311 33.6385 43.6311 29.6298C43.6845 26.2626 41.4412 23.4298 38.3432 22.5746Z" fill="white"/>
<path d="M34.1242 27.8122C34.2311 27.6519 34.3913 27.4915 34.5515 27.3846C34.6584 27.2777 34.7652 27.1708 34.9254 27.1174C34.9789 27.1174 34.9789 27.0639 35.0323 27.0639C35.2993 26.9036 35.5664 26.7967 35.8335 26.7432L37.8097 22.4139C37.3824 22.307 36.9017 22.2536 36.421 22.2536C35.78 22.2536 35.1925 22.3604 34.6584 22.4673C34.3913 22.5208 34.1242 22.6277 33.8572 22.7346C33.3765 22.8949 32.9492 23.1622 32.5219 23.4294C31.8809 23.857 31.2399 24.3915 30.7592 25.0329L30.6524 25.1932L30.3319 25.6208L26.2191 31.3398C25.8986 31.7674 25.4713 31.9812 24.9906 31.9812H24.4565C23.7087 33.1036 22.6404 34.9744 21.7324 36.4175H25.7384C27.1271 36.4175 28.4625 35.7761 29.3171 34.6002L29.7444 34.0123L30.2251 33.3709L34.0174 28.0795L34.1242 27.8122Z" fill="white"/>
</svg>
